<?xml version="1.0" standalone="no"?>
<!DOCTYPE svg PUBLIC "-//W3C//DTD SVG 20010904//EN"
 "http://www.w3.org/TR/2001/REC-SVG-20010904/DTD/svg10.dtd">
<svg version="1.0" xmlns="http://www.w3.org/2000/svg"
 width="250.000000pt" height="250.000000pt" viewBox="0 0 250.000000 250.000000"
 preserveAspectRatio="xMidYMid meet">

<g transform="translate(0.000000,250.000000) scale(0.100000,-0.100000)"
fill="#000000" stroke="none">
<path d="M1070 2375 c-105 -17 -186 -43 -310 -101 l-95 -45 60 -63 c33 -35 83
-90 110 -122 28 -32 58 -65 68 -73 9 -9 17 -19 17 -23 0 -4 14 -21 30 -36 17
-16 30 -34 30 -40 0 -6 5 -12 12 -14 13 -5 -1 -46 -289 -848 -102 -283 -188
-523 -191 -532 -4 -16 6 -18 106 -18 l109 0 84 235 83 235 365 -2 364 -3 82
-230 82 -230 121 -3 c67 -1 122 -1 122 1 0 3 -6 22 -14 43 -8 22 -35 98 -60
169 l-46 130 37 -41 c21 -23 56 -62 78 -88 68 -78 112 -126 118 -126 11 0 84
115 126 197 56 112 89 214 106 330 45 295 -22 577 -196 829 -59 85 -201 225
-288 283 -245 166 -533 231 -821 186z m180 -810 c19 -25 60 -71 90 -103 131
-140 163 -191 206 -324 5 -17 -13 -18 -289 -18 l-295 0 95 258 c52 141 97 265
100 275 6 19 14 11 93 -88z"/>
</g>
</svg>
